# xmcd
#
# Track frame offsets: 
#        150
#        22189
#        37797
#        59645
#        75081
#        93652
#        106575
#        122592
#        138308
#        161541
#        176917
#        202294
#        217623
#        232927
#
# Disc length: 3294 seconds
#
# Revision: 0
# Processed by: cddbd v1.5.2PL0 Copyright (c) Steve Scherf et al.
# Submitted via: ExactAudioCopy v1.0b3
#
DISCID=b10cdc0e
DTITLE=Various Artist - Trucker Festival
DYEAR=2010
DGENRE=Country Rock
TTITLE0=Irion - One In A Million
TTITLE1=Alexander, Cherish - For So Long
TTITLE2=Mackay, Jackson - A Glance To The Sky
TTITLE3=Monroe, Rick - Some Kind Of Woman
TTITLE4=Shannah - MY TRUCK
TTITLE5=Vann, Vicki - Delicious Love
TTITLE6=Ccb - This Time Is Mine
TTITLE7=Malone, Tammy - Wake Up
TTITLE8=Collins, Dean - Devil In Disguise
TTITLE9=Marks, Miko - All I Wanna Do
TTITLE10=Restless Heart - Sharp Dressed Man
TTITLE11=Big Bull Band - Tonight The Bottle Let Me Down
TTITLE12=Louvin, Charlie - Montgomery, Melba - Takes Love To Know Love
TTITLE13=J.C.P. Feat. Griffin, Gordon - Big River
EXTD=
EXTT0=
EXTT1=
EXTT2=
EXTT3=
EXTT4=
EXTT5=
EXTT6=
EXTT7=
EXTT8=
EXTT9=
EXTT10=
EXTT11=
EXTT12=
EXTT13=
PLAYORDER=
